<svg id="Layer_1" data-name="Layer 1" xmlns="http://www.w3.org/2000/svg" viewBox="0 0 1480 800"><title>final</title><path d="M256.7,602.5H90.1a8.2,8.2,0,0,0-8.1,8.1V742.9a8.2,8.2,0,0,0,8.1,8.1H256.7a8.2,8.2,0,0,0,8.1-8.1V610.6A8.2,8.2,0,0,0,256.7,602.5Zm-.2,140.2-166.2.2-.2-99.6H256.5Zm-106-117a5.8,5.8,0,1,1-11.5,0,5.8,5.8,0,0,1,11.5,0Zm-17,0a5.8,5.8,0,1,1-11.5,0,5.8,5.8,0,0,1,11.5,0Zm-17,0a5.8,5.8,0,1,1-11.5,0,5.8,5.8,0,0,1,11.5,0Zm-.7,81.9a2.5,2.5,0,0,1,2.5-2.5h45.5a2.5,2.5,0,1,1,0,5H118.3A2.5,2.5,0,0,1,115.8,707.6Zm0-40.5a2.5,2.5,0,0,1,2.5-2.5h74.3a2.5,2.5,0,1,1,0,4.9H118.3A2.5,2.5,0,0,1,115.8,667.1Zm0,20.1a2.5,2.5,0,0,1,2.5-2.5h74.3a2.5,2.5,0,1,1,0,5H118.3A2.5,2.5,0,0,1,115.8,687.2Z" style="fill:#36393a"/><path d="M1402.8,70.9H1196.6a7.3,7.3,0,0,0-7.3,7.3v70.5a7.3,7.3,0,0,0,7.3,7.3h206.2a7.3,7.3,0,0,0,7.2-7.3V78.2A7.3,7.3,0,0,0,1402.8,70.9Zm-1.1,76.8H1197.6V79.2h204.1Zm-104.5-21V100.1a2.5,2.5,0,0,1,2.5-2.4,2.5,2.5,0,0,1,2.5,2.4v26.6a2.5,2.5,0,0,1-2.5,2.5A2.5,2.5,0,0,1,1297.2,126.7Zm18.5,0V100.1a2.5,2.5,0,0,1,5,0v26.6a2.5,2.5,0,0,1-5,0Zm18.5,0V100.1a2.5,2.5,0,0,1,5,0v26.6a2.5,2.5,0,1,1-5,0Zm18.5,0V100.1a2.5,2.5,0,0,1,5,0v26.6a2.5,2.5,0,1,1-5,0Zm-129.6,0V100.1a2.5,2.5,0,0,1,5,0v26.6a2.5,2.5,0,1,1-5,0Zm18.5,0V100.1a2.5,2.5,0,0,1,2.5-2.4,2.5,2.5,0,0,1,2.5,2.4v26.6a2.5,2.5,0,0,1-2.5,2.5A2.5,2.5,0,0,1,1241.6,126.7Zm18.6,0V100.1a2.5,2.5,0,0,1,4.9,0v26.6a2.5,2.5,0,1,1-4.9,0Zm18.5,0V100.1a2.5,2.5,0,0,1,4.9,0v26.6a2.5,2.5,0,1,1-4.9,0Zm92.5,0V100.1a2.5,2.5,0,0,1,5,0v26.6a2.5,2.5,0,1,1-5,0Zm5.5,40.9a4.1,4.1,0,0,1-4.1,4.1H1226.8a4.1,4.1,0,1,1,0-8.2h145.8A4.1,4.1,0,0,1,1376.7,167.6Z" style="fill:#36393a"/><path d="M265.5,173.8V63.7a8.7,8.7,0,0,0-8.7-8.7H90.9a8.7,8.7,0,0,0-8.7,8.7V173.8H70.6c1,7.8,6.5,13.9,13,13.9H263.1c6.6,0,12-6.1,13.1-13.9ZM92.1,64.9H255.5V173.8H92.1Z" style="fill:#36393a"/><path d="M308.7,12.2l-1.5,8.5h-3.7l2.2-8.5Zm6.5,0L314,20.7h-3.9l2.1-8.5Z" style="fill:#36393a"/><path d="M327,34.8h-3.8l-6-22.6h4.2l3.9,17.1h.1L330,12.2h3.5L338,29.3h.2l3.9-17.1h4.2l-6.1,22.6h-3.8l-4.6-16.4h-.1Z" style="fill:#36393a"/><path d="M348.6,12.2h3.9V21h.1a5.3,5.3,0,0,1,5.2-3.1c3.7,0,5.8,2.4,5.8,6.2V34.8h-3.9V24.9c0-2.3-1.2-3.7-3.4-3.7a3.7,3.7,0,0,0-3.8,4v9.6h-3.9Z" style="fill:#36393a"/><path d="M366,30c0-2.9,2.3-4.7,6.3-4.9l4.4-.3V23.6c0-1.7-1.2-2.7-3.1-2.7s-3,.9-3.2,2.3h-3.6c.1-3.1,2.8-5.3,7-5.3s6.8,2.1,6.8,5.5V34.8h-3.8V32.1h-.1a5.7,5.7,0,0,1-5.1,2.9C368.4,35,366,33,366,30Zm10.7-1.4V27.4l-3.8.2c-1.9.1-3,1-3,2.3s1.2,2.2,2.9,2.2A3.6,3.6,0,0,0,376.7,28.6Z" style="fill:#36393a"/><path d="M388.7,14.3v3.9h3.1v3h-3.1v8.6c0,1.4.6,2,2,2h1.1v3h-2c-3.6,0-5-1.2-5-4.4V21.2h-2.4v-3h2.4V14.3Z" style="fill:#36393a"/><path d="M394.4,20.7l1.4-8.5h3.8l-2.2,8.5Z" style="fill:#36393a"/><path d="M407.2,17.9c4,0,6.6,2.1,6.7,5.3h-3.6a2.8,2.8,0,0,0-3.1-2.5c-1.7,0-2.8.8-2.8,2s.6,1.7,2.4,2l2.7.7c3.5.7,4.8,2,4.8,4.5s-2.9,5.2-6.9,5.2-6.9-2.1-7.2-5.3H404c.3,1.6,1.4,2.4,3.4,2.4s3-.7,3-2-.6-1.5-2.3-1.9l-2.8-.6c-3.1-.7-4.7-2.3-4.7-4.8S403.2,17.9,407.2,17.9Z" style="fill:#36393a"/><path d="M428.1,14.3v3.9h3.2v3h-3.2v8.6a1.8,1.8,0,0,0,2,2h1.1v3h-2c-3.5,0-5-1.2-5-4.4V21.2h-2.3v-3h2.3V14.3Z" style="fill:#36393a"/><path d="M434,12.2h3.9V21h0a5.4,5.4,0,0,1,5.3-3.1c3.6,0,5.8,2.4,5.8,6.2V34.8h-3.9V24.9c0-2.3-1.2-3.7-3.4-3.7s-3.8,1.6-3.8,4v9.6H434Z" style="fill:#36393a"/><path d="M466.7,29.8c-.5,3.1-3.4,5.3-7.3,5.3s-8-3.3-8-8.6,3-8.6,7.8-8.6,7.6,3.2,7.6,8.3v1.2H455.3v.3c0,2.6,1.6,4.4,4.1,4.4a3.5,3.5,0,0,0,3.6-2.3Zm-11.4-4.9H463a3.7,3.7,0,0,0-3.8-4C457,20.9,455.5,22.5,455.3,24.9Z" style="fill:#36393a"/><path d="M476.1,34.8V12.2h4.1V34.8Z" style="fill:#36393a"/><path d="M492.9,12.2a7.2,7.2,0,0,1,7.6,7.6c0,4.5-3.2,7.5-7.8,7.5h-4.5v7.5h-4.1V12.2Zm-4.7,11.9h3.6c2.9,0,4.6-1.6,4.6-4.3s-1.7-4.3-4.6-4.3h-3.6Z" style="fill:#36393a"/><path d="M510.5,21.2h-2.2v-3h2.2V16.8c0-3.2,1.6-4.8,5.2-4.8l2.1.2v2.7h-1.3c-1.5,0-2.1.7-2.1,2.1v1.3h3.3v3h-3.3V34.8h-3.9Z" style="fill:#36393a"/><path d="M519,26.5c0-5.4,3.2-8.6,8-8.6s8,3.2,8,8.6-3.2,8.6-8,8.6S519,31.9,519,26.5Zm12,0c0-3.5-1.5-5.6-4-5.6s-4.1,2.1-4.1,5.6S524.5,32,527,32,531,30,531,26.5Z" style="fill:#36393a"/><path d="M537.5,18.2h3.7v2.9h.1a4,4,0,0,1,4-3.2l1.2.2v3.5l-1.6-.2c-2.2,0-3.5,1.4-3.5,3.7v9.7h-3.9Z" style="fill:#36393a"/><path d="M329.5,68.2c-.5,3.1-3.4,5.3-7.3,5.3s-8-3.3-8-8.6,3-8.6,7.8-8.6,7.6,3.2,7.6,8.3v1.2H318.1v.3c0,2.6,1.6,4.4,4.1,4.4a3.5,3.5,0,0,0,3.6-2.3Zm-11.4-4.9h7.7a3.7,3.7,0,0,0-3.8-4A3.9,3.9,0,0,0,318.1,63.3Z" style="fill:#36393a"/><path d="M338.3,67.2l-3.5,6h-4.1l5.3-8.3-5.3-8.3h4.4l3.4,5.8h0l3.3-5.8h4.3l-5.3,8.2,5.2,8.4h-4.2l-3.5-6Z" style="fill:#36393a"/><path d="M347.2,68.4c0-2.9,2.2-4.7,6.3-4.9l4.3-.3V62c0-1.7-1.1-2.7-3.1-2.7s-3,.9-3.2,2.3h-3.6c.1-3.1,2.8-5.3,7-5.3s6.8,2.1,6.8,5.5V73.2h-3.8V70.5h-.1a5.7,5.7,0,0,1-5.1,2.9C349.5,73.4,347.2,71.4,347.2,68.4ZM357.8,67V65.8L354,66c-1.9.1-3,1-3,2.3s1.2,2.2,2.9,2.2A3.6,3.6,0,0,0,357.8,67Z" style="fill:#36393a"/><path d="M364.8,56.6h3.7v2.9h.1a4.9,4.9,0,0,1,4.7-3.2,4.6,4.6,0,0,1,4.7,3.3h0a5.4,5.4,0,0,1,5.2-3.3,5.1,5.1,0,0,1,5.4,5.5V73.2h-3.9V62.8c0-2.1-1-3.2-2.9-3.2a3.1,3.1,0,0,0-3.2,3.3V73.2h-3.8V62.6a2.7,2.7,0,0,0-2.9-3,3.2,3.2,0,0,0-3.2,3.4V73.2h-3.9Z" style="fill:#36393a"/><path d="M407.7,64.9c0,5.3-2.7,8.5-6.8,8.5a5.5,5.5,0,0,1-5.2-3h-.1v8.2h-3.9v-22h3.8v2.9h.1a5.5,5.5,0,0,1,5.2-3.2C405,56.3,407.7,59.6,407.7,64.9Zm-4,0c0-3.3-1.6-5.4-4.1-5.4s-4,2.2-4,5.4,1.6,5.3,4,5.3S403.7,68.2,403.7,64.9Z" style="fill:#36393a"/><path d="M410.3,50.6h3.9V73.2h-3.9Z" style="fill:#36393a"/><path d="M432.1,68.2c-.5,3.1-3.4,5.3-7.3,5.3s-8-3.3-8-8.6,3-8.6,7.8-8.6,7.7,3.2,7.7,8.3v1.2H420.7v.3a4,4,0,0,0,4.2,4.4,3.6,3.6,0,0,0,3.6-2.3Zm-11.4-4.9h7.8a3.8,3.8,0,0,0-3.9-4C422.5,59.3,420.9,60.9,420.7,63.3Z" style="fill:#36393a"/><path d="M435.2,71.1a2.3,2.3,0,1,1,4.5,0,2.2,2.2,0,0,1-2.2,2.2A2.2,2.2,0,0,1,435.2,71.1Z" style="fill:#36393a"/><path d="M453.5,62.5a3.4,3.4,0,0,0-3.6-3.1c-2.5,0-4,2.1-4,5.5s1.6,5.4,4,5.4a3.4,3.4,0,0,0,3.6-3h3.7c-.3,3.8-3.2,6.2-7.3,6.2s-8-3.2-8-8.6,3.1-8.6,7.9-8.6,7.1,2.7,7.4,6.2Z" style="fill:#36393a"/><path d="M458.8,64.9c0-5.4,3.2-8.6,8-8.6s8.1,3.2,8.1,8.6-3.2,8.6-8.1,8.6S458.8,70.3,458.8,64.9Zm12.1,0c0-3.5-1.6-5.6-4.1-5.6s-4,2.1-4,5.6,1.6,5.5,4,5.5S470.9,68.4,470.9,64.9Z" style="fill:#36393a"/><path d="M477.4,56.6h3.7v2.9h.1a4.8,4.8,0,0,1,4.7-3.2,4.5,4.5,0,0,1,4.6,3.3h.1a5.4,5.4,0,0,1,5.2-3.3,5.2,5.2,0,0,1,5.4,5.5V73.2h-3.9V62.8c0-2.1-1.1-3.2-3-3.2a3,3,0,0,0-3.1,3.3V73.2h-3.8V62.6a2.8,2.8,0,0,0-3-3,3.2,3.2,0,0,0-3.2,3.4V73.2h-3.8Z" style="fill:#36393a"/><path d="M510.8,50.4c4.3,0,7.2,2.5,7.2,5.9a6.1,6.1,0,0,1-3.3,5.4c-2.1,1.1-2.7,2-2.7,3.5v.9h-3.6V65c-.1-2.3.8-3.7,2.9-5s2.6-2,2.6-3.5-1.3-2.9-3.3-2.9a3.2,3.2,0,0,0-3.4,3.2h-3.7C503.7,53.1,506.2,50.4,510.8,50.4ZM508,71.3a2.2,2.2,0,0,1,2.3-2.2,2.2,2.2,0,0,1,2.2,2.2,2.2,2.2,0,0,1-2.2,2.2A2.2,2.2,0,0,1,508,71.3Z" style="fill:#36393a"/><path d="M521.3,59.1l1.3-8.5h3.8l-2.2,8.5Zm6.6,0,1.3-8.5h3.9l-2.3,8.5Z" style="fill:#36393a"/><path d="M94.9,529.8c-.5,3.1-3.4,5.3-7.3,5.3s-8-3.3-8-8.6,3-8.6,7.8-8.6,7.6,3.2,7.6,8.3v1.2H83.5v.3c0,2.6,1.6,4.4,4.1,4.4a3.5,3.5,0,0,0,3.6-2.3Zm-11.4-4.9h7.7a3.7,3.7,0,0,0-3.8-4C85.2,520.9,83.7,522.5,83.5,524.9Z" style="fill:#36393a"/><path d="M103.7,528.8l-3.5,6H96.1l5.3-8.3-5.3-8.3h4.4l3.4,5.8h0l3.3-5.8h4.3l-5.3,8.2,5.2,8.4h-4.2l-3.5-6Z" style="fill:#36393a"/><path d="M112.6,530c0-2.9,2.2-4.7,6.3-4.9l4.3-.3v-1.2c0-1.7-1.1-2.7-3.1-2.7s-3,.9-3.2,2.3h-3.6c.1-3.1,2.8-5.3,7-5.3s6.8,2.1,6.8,5.5v11.4h-3.8v-2.7h-.1a5.7,5.7,0,0,1-5.1,2.9C114.9,535,112.6,533,112.6,530Zm10.6-1.4v-1.2l-3.8.2c-1.9.1-3,1-3,2.3s1.2,2.2,2.9,2.2A3.6,3.6,0,0,0,123.2,528.6Z" style="fill:#36393a"/><path d="M130.2,518.2h3.7v2.9h.1a4.9,4.9,0,0,1,4.7-3.2,4.6,4.6,0,0,1,4.7,3.3h0a5.4,5.4,0,0,1,5.2-3.3,5.1,5.1,0,0,1,5.4,5.5v11.4h-3.9V524.4c0-2.1-1-3.2-2.9-3.2a3.1,3.1,0,0,0-3.2,3.3v10.3h-3.8V524.2a2.7,2.7,0,0,0-2.9-3,3.2,3.2,0,0,0-3.2,3.4v10.2h-3.9Z" style="fill:#36393a"/><path d="M173.1,526.5c0,5.3-2.7,8.5-6.8,8.5a5.5,5.5,0,0,1-5.2-3H161v8.2h-3.9v-22h3.8v2.9h.1a5.5,5.5,0,0,1,5.2-3.2C170.4,517.9,173.1,521.2,173.1,526.5Zm-4,0c0-3.3-1.6-5.4-4.1-5.4s-4,2.2-4,5.4,1.6,5.3,4,5.3S169.1,529.8,169.1,526.5Z" style="fill:#36393a"/><path d="M175.7,512.2h3.9v22.6h-3.9Z" style="fill:#36393a"/><path d="M197.5,529.8c-.5,3.1-3.4,5.3-7.3,5.3s-8-3.3-8-8.6,3-8.6,7.8-8.6,7.7,3.2,7.7,8.3v1.2H186.1v.3a4,4,0,0,0,4.2,4.4,3.6,3.6,0,0,0,3.6-2.3Zm-11.4-4.9h7.8a3.8,3.8,0,0,0-3.9-4C187.9,520.9,186.3,522.5,186.1,524.9Z" style="fill:#36393a"/><path d="M200.6,532.7a2.3,2.3,0,1,1,4.5,0,2.2,2.2,0,0,1-2.2,2.2A2.2,2.2,0,0,1,200.6,532.7Z" style="fill:#36393a"/><path d="M218.9,524.1a3.4,3.4,0,0,0-3.6-3.1c-2.5,0-4,2.1-4,5.5s1.6,5.4,4,5.4a3.4,3.4,0,0,0,3.6-3h3.7c-.3,3.8-3.2,6.2-7.3,6.2s-8-3.2-8-8.6,3.1-8.6,7.9-8.6,7.1,2.7,7.4,6.2Z" style="fill:#36393a"/><path d="M224.2,526.5c0-5.4,3.2-8.6,8-8.6s8.1,3.2,8.1,8.6-3.2,8.6-8.1,8.6S224.2,531.9,224.2,526.5Zm12.1,0c0-3.5-1.6-5.6-4.1-5.6s-4,2.1-4,5.6,1.6,5.5,4,5.5S236.3,530,236.3,526.5Z" style="fill:#36393a"/><path d="M242.8,518.2h3.7v2.9h.1a4.8,4.8,0,0,1,4.7-3.2,4.5,4.5,0,0,1,4.6,3.3h.1a5.4,5.4,0,0,1,5.2-3.3,5.2,5.2,0,0,1,5.4,5.5v11.4h-3.9V524.4c0-2.1-1.1-3.2-3-3.2a3,3,0,0,0-3.1,3.3v10.3h-3.8V524.2a2.7,2.7,0,0,0-3-3,3.1,3.1,0,0,0-3.1,3.4v10.2h-3.9Z" style="fill:#36393a"/><path d="M18.5,573.2V550.6h4v22.6Z" style="fill:#36393a"/><path d="M35.3,550.6a7.2,7.2,0,0,1,7.5,7.6c0,4.5-3.2,7.5-7.7,7.5H30.5v7.5h-4V550.6Zm-4.8,11.9h3.7c2.9,0,4.6-1.6,4.6-4.3s-1.7-4.3-4.6-4.3H30.5Z" style="fill:#36393a"/><path d="M51.1,568.4c0-2.9,2.3-4.7,6.3-4.9l4.4-.3V562c0-1.7-1.2-2.7-3.1-2.7s-3,.9-3.2,2.3H51.8c.2-3.1,2.9-5.3,7.1-5.3s6.8,2.1,6.8,5.5v11.4H61.9v-2.7h-.1a5.7,5.7,0,0,1-5.1,2.9C53.5,573.4,51.1,571.4,51.1,568.4ZM61.8,567v-1.2L58,566c-1.9.1-3,1-3,2.3s1.2,2.2,2.8,2.2A3.7,3.7,0,0,0,61.8,567Z" style="fill:#36393a"/><path d="M68.1,564.9c0-5.3,2.7-8.6,6.9-8.6a5.7,5.7,0,0,1,5.1,3.1h.1v-8.8h3.9v22.6H80.3v-2.9h-.1a5.5,5.5,0,0,1-5.2,3.1C70.8,573.4,68.1,570.1,68.1,564.9Zm4,0c0,3.3,1.5,5.3,4,5.3s4.1-2,4.1-5.3-1.6-5.4-4.1-5.4S72.1,561.6,72.1,564.9Z" style="fill:#36393a"/><path d="M86.7,564.9c0-5.3,2.7-8.6,6.8-8.6a5.7,5.7,0,0,1,5.2,3.1h.1v-8.8h3.8v22.6H98.8v-2.9h0a5.6,5.6,0,0,1-5.3,3.1C89.4,573.4,86.7,570.1,86.7,564.9Zm3.9,0c0,3.3,1.6,5.3,4.1,5.3s4.1-2,4.1-5.3-1.6-5.4-4.1-5.4S90.6,561.6,90.6,564.9Z" style="fill:#36393a"/><path d="M105.9,556.6h3.7v2.9h.1a4,4,0,0,1,4-3.2l1.2.2V560l-1.6-.2c-2.2,0-3.5,1.4-3.5,3.7v9.7h-3.9Z" style="fill:#36393a"/><path d="M130.9,568.2c-.5,3.1-3.4,5.3-7.3,5.3s-8-3.3-8-8.6,3-8.6,7.8-8.6,7.6,3.2,7.6,8.3v1.2H119.5v.3c0,2.6,1.6,4.4,4.1,4.4a3.6,3.6,0,0,0,3.7-2.3Zm-11.4-4.9h7.7a3.7,3.7,0,0,0-3.8-4C121.2,559.3,119.7,560.9,119.5,563.3Z" style="fill:#36393a"/><path d="M139.9,556.3c4,0,6.6,2.1,6.7,5.3H143a2.8,2.8,0,0,0-3.1-2.5c-1.7,0-2.9.8-2.9,2s.7,1.7,2.5,2l2.7.7c3.4.7,4.8,2,4.8,4.5s-2.9,5.2-7,5.2-6.9-2.1-7.2-5.3h3.9q.5,2.4,3.3,2.4c1.9,0,3.1-.7,3.1-2s-.6-1.5-2.3-1.9l-2.8-.6c-3.2-.7-4.7-2.3-4.7-4.8S135.9,556.3,139.9,556.3Z" style="fill:#36393a"/><path d="M155.8,556.3c4,0,6.6,2.1,6.7,5.3h-3.7a2.7,2.7,0,0,0-3-2.5c-1.7,0-2.9.8-2.9,2s.7,1.7,2.4,2l2.8.7c3.4.7,4.8,2,4.8,4.5s-2.9,5.2-7,5.2-6.9-2.1-7.2-5.3h3.8c.3,1.6,1.5,2.4,3.4,2.4s3.1-.7,3.1-2-.6-1.5-2.3-1.9l-2.8-.6q-4.8-1.1-4.8-4.8C149.1,558.3,151.8,556.3,155.8,556.3Z" style="fill:#36393a"/><path d="M165.8,559.4a2.2,2.2,0,0,1,2.2-2.2,2.3,2.3,0,1,1-2.2,2.2Zm0,11.7a2.3,2.3,0,1,1,2.2,2.2A2.2,2.2,0,0,1,165.8,571.1Z" style="fill:#36393a"/><path d="M186.1,554.5H186l-5.8,4v-3.7l5.9-4.2h4v22.6h-4Z" style="fill:#36393a"/><path d="M195.1,567.6h4c.6,1.8,2.1,2.7,4.2,2.7s5.2-3.3,5.2-8.5h0c-.9,2.2-3.2,3.6-6.2,3.6a7.1,7.1,0,0,1-7.4-7.4c0-4.6,3.5-7.9,8.4-7.9s9.1,3.2,9.1,11.5-3.4,12-9.2,12C199,573.6,195.7,571.2,195.1,567.6Zm12.7-9.6a4.5,4.5,0,0,0-9-.1,4.5,4.5,0,0,0,9,.1Z" style="fill:#36393a"/><path d="M223,550.2c4.6,0,7.7,2.8,7.7,6.4s-1.3,4.4-5.2,8.3l-5,4.9H231v3.3H215.2v-2.8l8-7.8c2.9-2.9,3.6-4,3.6-5.7a3.5,3.5,0,0,0-3.8-3.5,4,4,0,0,0-4.2,3.9H215C215,553.1,218.3,550.2,223,550.2Z" style="fill:#36393a"/><path d="M234.4,571.1a2.3,2.3,0,1,1,4.5,0,2.2,2.2,0,0,1-2.2,2.2A2.2,2.2,0,0,1,234.4,571.1Z" style="fill:#36393a"/><path d="M242,561.9c0-7.2,3.4-11.7,8.9-11.7s8.9,4.4,8.9,11.6-3.3,11.8-8.9,11.8S242,569.1,242,561.9Zm13.7,0c0-5.3-1.8-8.4-4.8-8.4s-4.8,3.1-4.8,8.3,1.7,8.5,4.8,8.5S255.7,567.2,255.7,561.9Z" style="fill:#36393a"/><path d="M262.4,571.1a2.3,2.3,0,1,1,4.5,0,2.2,2.2,0,0,1-2.2,2.2A2.2,2.2,0,0,1,262.4,571.1Z" style="fill:#36393a"/><path d="M270,561.9c0-7.2,3.4-11.7,8.9-11.7s8.9,4.4,8.9,11.6-3.3,11.8-8.9,11.8S270,569.1,270,561.9Zm13.7,0c0-5.3-1.8-8.4-4.8-8.4s-4.8,3.1-4.8,8.3,1.7,8.5,4.8,8.5S283.7,567.2,283.7,561.9Z" style="fill:#36393a"/><path d="M290.4,571.1a2.3,2.3,0,1,1,4.5,0,2.2,2.2,0,0,1-2.2,2.2A2.2,2.2,0,0,1,290.4,571.1Z" style="fill:#36393a"/><path d="M302.6,554.5h-.1l-5.8,4v-3.7l5.9-4.2h4v22.6h-4Z" style="fill:#36393a"/><path d="M311.5,562.1c0-7.5,3.5-12,9.2-12s7.4,2.5,8.1,6.1h-4a4,4,0,0,0-4.1-2.8c-3.5,0-5.3,3.3-5.3,8.6h.1a6.4,6.4,0,0,1,6.2-3.7,7.2,7.2,0,0,1,7.4,7.4c0,4.6-3.6,7.9-8.5,7.9S311.5,570.1,311.5,562.1Zm13.6,3.8a4.5,4.5,0,0,0-9-.1,4.5,4.5,0,0,0,4.5,4.5A4.4,4.4,0,0,0,325.1,565.9Z" style="fill:#36393a"/><path d="M345.7,145.2l-1.4,8.5h-3.8l2.2-8.5Zm6.6,0-1.3,8.5h-3.8l2.1-8.5Z" style="fill:#398557"/><path d="M361.7,149.1h-.1l-5.8,4v-3.7l5.8-4.2h4v22.6h-3.9Z" style="fill:#398557"/><path d="M370.7,162.2h4c.5,1.8,2.1,2.7,4.1,2.7,3.6,0,5.3-3.3,5.3-8.5H384c-.9,2.2-3.2,3.6-6.1,3.6a7.2,7.2,0,0,1-7.5-7.4c0-4.6,3.6-7.9,8.5-7.9s9.1,3.2,9.1,11.5-3.5,12-9.2,12C374.6,168.2,371.3,165.8,370.7,162.2Zm12.7-9.6a4.5,4.5,0,0,0-9-.1,4.5,4.5,0,0,0,9,.1Z" style="fill:#398557"/><path d="M398.6,144.8c4.6,0,7.7,2.8,7.7,6.4s-1.3,4.4-5.2,8.3l-5,4.9h10.5v3.3H390.8V165l7.9-7.8c3-2.9,3.6-4,3.6-5.7a3.5,3.5,0,0,0-3.7-3.5,4.1,4.1,0,0,0-4.3,3.9h-3.8C390.5,147.7,393.9,144.8,398.6,144.8Z" style="fill:#398557"/><path d="M410,165.7a2.3,2.3,0,1,1,4.5,0,2.2,2.2,0,0,1-2.2,2.2A2.2,2.2,0,0,1,410,165.7Z" style="fill:#398557"/><path d="M417.6,156.5c0-7.2,3.3-11.7,8.9-11.7s8.8,4.4,8.8,11.6-3.3,11.8-8.8,11.8S417.6,163.7,417.6,156.5Zm13.7,0c0-5.3-1.8-8.4-4.8-8.4s-4.8,3.1-4.8,8.3,1.7,8.5,4.8,8.5S431.3,161.8,431.3,156.5Z" style="fill:#398557"/><path d="M438,165.7a2.3,2.3,0,1,1,4.5,0,2.2,2.2,0,0,1-2.2,2.2A2.2,2.2,0,0,1,438,165.7Z" style="fill:#398557"/><path d="M445.6,156.5c0-7.2,3.3-11.7,8.9-11.7s8.8,4.4,8.8,11.6-3.3,11.8-8.8,11.8S445.6,163.7,445.6,156.5Zm13.7,0c0-5.3-1.8-8.4-4.8-8.4s-4.8,3.1-4.8,8.3,1.7,8.5,4.8,8.5S459.3,161.8,459.3,156.5Z" style="fill:#398557"/><path d="M466,165.7a2.3,2.3,0,1,1,4.5,0,2.2,2.2,0,0,1-2.2,2.2A2.2,2.2,0,0,1,466,165.7Z" style="fill:#398557"/><path d="M478.2,149.1h-.1l-5.8,4v-3.7l5.9-4.2h3.9v22.6h-3.9Z" style="fill:#398557"/><path d="M487.1,156.7c0-7.5,3.4-12,9.2-12,4.2,0,7.4,2.5,8,6.1h-4a3.8,3.8,0,0,0-4-2.8c-3.5,0-5.3,3.3-5.3,8.6h0a6.5,6.5,0,0,1,6.2-3.7,7.1,7.1,0,0,1,7.4,7.4c0,4.6-3.5,7.9-8.4,7.9S487.1,164.7,487.1,156.7Zm13.6,3.8a4.3,4.3,0,0,0-4.5-4.4,4.3,4.3,0,0,0-4.6,4.3,4.5,4.5,0,0,0,4.5,4.5A4.4,4.4,0,0,0,500.7,160.5Z" style="fill:#398557"/><path d="M507.7,153.7l1.3-8.5h3.8l-2.1,8.5Zm6.6,0,1.4-8.5h3.8l-2.2,8.5Z" style="fill:#398557"/><path d="M1223.3,226.9H1215l-1.9,5.9h-4.2l8-22.6h4.5l8,22.6h-4.2Zm-7.4-3.1h6.4l-3.1-9.6h-.1Z" style="fill:#36393a"/><path d="M1245.6,232.8h-3.7v-2.9h-.1a5.1,5.1,0,0,1-5.1,3.2c-3.5,0-5.8-2.4-5.8-6.2V216.2h3.9v9.9c0,2.4,1.1,3.7,3.3,3.7s3.6-1.6,3.6-4v-9.6h3.9Z" style="fill:#36393a"/><path d="M1253.8,212.3v3.9h3.1v3h-3.1v8.6c0,1.4.6,2,2,2h1.1v3h-2c-3.6,0-5-1.2-5-4.4v-9.2h-2.4v-3h2.4v-3.9Z" style="fill:#36393a"/><path d="M1259.7,210.2h3.8V219h.1a5.3,5.3,0,0,1,5.2-3.1c3.7,0,5.8,2.4,5.8,6.2v10.7h-3.9v-9.9c0-2.3-1.1-3.7-3.4-3.7a3.7,3.7,0,0,0-3.8,4v9.6h-3.8Z" style="fill:#36393a"/><path d="M1277,224.5c0-5.4,3.2-8.6,8-8.6s8.1,3.2,8.1,8.6-3.2,8.6-8.1,8.6S1277,229.9,1277,224.5Zm12.1,0c0-3.5-1.6-5.6-4.1-5.6s-4,2.1-4,5.6,1.6,5.5,4,5.5S1289.1,228,1289.1,224.5Z" style="fill:#36393a"/><path d="M1295.6,216.2h3.7v2.9h.1a3.9,3.9,0,0,1,3.9-3.2l1.3.2v3.5l-1.6-.2a3.4,3.4,0,0,0-3.6,3.7v9.7h-3.8Z" style="fill:#36393a"/><path d="M1306.4,211.6a2.1,2.1,0,0,1,2.2-2.1,2.1,2.1,0,0,1,2.1,2.1,2.1,2.1,0,0,1-2.1,2.1A2.2,2.2,0,0,1,1306.4,211.6Zm.3,4.6h3.8v16.6h-3.8Z" style="fill:#36393a"/><path d="M1318.8,212.3v3.9h3.1v3h-3.1v8.6c0,1.4.6,2,2,2h1.1v3h-2c-3.6,0-5-1.2-5-4.4v-9.2h-2.4v-3h2.4v-3.9Z" style="fill:#36393a"/><path d="M1323.7,228c0-2.9,2.2-4.7,6.3-4.9l4.3-.3v-1.2c0-1.7-1.1-2.7-3.1-2.7s-3,.9-3.2,2.3h-3.6c.1-3.1,2.8-5.3,7-5.3s6.8,2.1,6.8,5.5v11.4h-3.8v-2.7h0a6,6,0,0,1-5.2,2.9C1326,233,1323.7,231,1323.7,228Zm10.6-1.4v-1.2l-3.8.2c-1.9.1-2.9,1-2.9,2.3s1.1,2.2,2.8,2.2A3.6,3.6,0,0,0,1334.3,226.6Z" style="fill:#36393a"/><path d="M1346.3,212.3v3.9h3.1v3h-3.1v8.6c0,1.4.6,2,2,2h1.1v3h-2c-3.6,0-5-1.2-5-4.4v-9.2H1340v-3h2.4v-3.9Z" style="fill:#36393a"/><path d="M1351.9,211.6a2.1,2.1,0,0,1,2.2-2.1,2.1,2.1,0,0,1,2.1,2.1,2.1,2.1,0,0,1-2.1,2.1A2.2,2.2,0,0,1,1351.9,211.6Zm.2,4.6h3.9v16.6h-3.9Z" style="fill:#36393a"/><path d="M1368,232.8h-4.2l-5.9-16.6h4.1l3.9,13h.1l3.8-13h4.1Z" style="fill:#36393a"/><path d="M1389.8,227.8c-.5,3.1-3.4,5.3-7.3,5.3s-8-3.3-8-8.6,3-8.6,7.8-8.6,7.6,3.2,7.6,8.3v1.2h-11.5v.3c0,2.6,1.6,4.4,4.1,4.4a3.6,3.6,0,0,0,3.7-2.3Zm-11.4-4.9h7.7a3.7,3.7,0,0,0-3.8-4C1380.1,218.9,1378.6,220.5,1378.4,222.9Z" style="fill:#36393a"/><path d="M1217.6,254.6h3.7v2.8h.1a5.4,5.4,0,0,1,5.2-3.1c3.7,0,5.7,2.3,5.7,6.2v10.7h-3.9v-10c0-2.3-1-3.6-3.3-3.6s-3.6,1.6-3.6,4v9.6h-3.9Z" style="fill:#36393a"/><path d="M1234.8,266.4c0-2.9,2.3-4.7,6.3-4.9l4.4-.3V260c0-1.7-1.2-2.7-3.1-2.7s-3,.9-3.3,2.3h-3.6c.2-3.1,2.8-5.3,7-5.3s6.8,2.1,6.8,5.5v11.4h-3.7v-2.7h-.1a6,6,0,0,1-5.2,2.9C1237.1,271.4,1234.8,269.4,1234.8,266.4Zm10.7-1.4v-1.2l-3.9.2c-1.8.1-2.9,1-2.9,2.3s1.1,2.2,2.8,2.2A3.7,3.7,0,0,0,1245.5,265Z" style="fill:#36393a"/><path d="M1252.4,254.6h3.8v2.9h0a5,5,0,0,1,4.8-3.2,4.5,4.5,0,0,1,4.6,3.3h.1a5.3,5.3,0,0,1,5.1-3.3,5.1,5.1,0,0,1,5.4,5.5v11.4h-3.8V260.8c0-2.1-1.1-3.2-3-3.2a3.1,3.1,0,0,0-3.2,3.3v10.3h-3.8V260.6a2.7,2.7,0,0,0-2.9-3,3.2,3.2,0,0,0-3.2,3.4v10.2h-3.9Z" style="fill:#36393a"/><path d="M1294,266.2c-.5,3.1-3.4,5.3-7.4,5.3s-7.9-3.3-7.9-8.6,3-8.6,7.8-8.6,7.6,3.2,7.6,8.3v1.2h-11.6v.3a4.1,4.1,0,0,0,4.2,4.4,3.5,3.5,0,0,0,3.6-2.3Zm-11.4-4.9h7.7c-.1-2.4-1.6-4-3.8-4A3.9,3.9,0,0,0,1282.6,261.3Z" style="fill:#36393a"/><path d="M1303,254.3c4,0,6.6,2.1,6.7,5.3H1306a2.7,2.7,0,0,0-3-2.5c-1.8,0-2.9.8-2.9,2s.7,1.7,2.4,2l2.8.7c3.4.7,4.7,2,4.7,4.5s-2.8,5.2-6.9,5.2-6.9-2.1-7.2-5.3h3.8c.3,1.6,1.4,2.4,3.4,2.4s3.1-.7,3.1-2-.6-1.5-2.4-1.9l-2.7-.6q-4.8-1.1-4.8-4.8C1296.3,256.3,1299,254.3,1303,254.3Z" style="fill:#36393a"/><path d="M1327.1,266.2c-.5,3.1-3.4,5.3-7.3,5.3s-8-3.3-8-8.6,3.1-8.6,7.8-8.6,7.7,3.2,7.7,8.3v1.2h-11.6v.3a4,4,0,0,0,4.2,4.4,3.5,3.5,0,0,0,3.6-2.3Zm-11.4-4.9h7.8c-.1-2.4-1.6-4-3.8-4A4,4,0,0,0,1315.7,261.3Z" style="fill:#36393a"/><path d="M1329.8,254.6h3.7v2.9h.1a4,4,0,0,1,4-3.2l1.2.2V258l-1.6-.2c-2.2,0-3.5,1.4-3.5,3.7v9.7h-3.9Z" style="fill:#36393a"/><path d="M1349.5,271.2h-4.3l-5.8-16.6h4.1l3.9,13h0l3.9-13h4.1Z" style="fill:#36393a"/><path d="M1371.3,266.2c-.5,3.1-3.4,5.3-7.4,5.3s-7.9-3.3-7.9-8.6,3-8.6,7.8-8.6,7.6,3.2,7.6,8.3v1.2h-11.5v.3c0,2.6,1.6,4.4,4.1,4.4a3.5,3.5,0,0,0,3.6-2.3Zm-11.4-4.9h7.7c-.1-2.4-1.6-4-3.8-4A3.9,3.9,0,0,0,1359.9,261.3Z" style="fill:#36393a"/><path d="M1373.9,254.6h3.8v2.9h0a4.1,4.1,0,0,1,4-3.2l1.2.2V258l-1.5-.2a3.4,3.4,0,0,0-3.6,3.7v9.7h-3.9Z" style="fill:#36393a"/><path d="M834.8,70.9H628.6a7.3,7.3,0,0,0-7.3,7.3v70.5a7.3,7.3,0,0,0,7.3,7.3H834.8a7.3,7.3,0,0,0,7.2-7.3V78.2A7.3,7.3,0,0,0,834.8,70.9Zm-1.1,76.8H629.6V79.2H833.7Zm-104.5-21V100.1a2.5,2.5,0,0,1,2.5-2.4,2.5,2.5,0,0,1,2.5,2.4v26.6a2.5,2.5,0,0,1-2.5,2.5A2.5,2.5,0,0,1,729.2,126.7Zm18.5,0V100.1a2.5,2.5,0,0,1,5,0v26.6a2.5,2.5,0,1,1-5,0Zm18.5,0V100.1a2.5,2.5,0,0,1,5,0v26.6a2.5,2.5,0,0,1-5,0Zm18.5,0V100.1a2.5,2.5,0,0,1,5,0v26.6a2.5,2.5,0,1,1-5,0Zm-129.6,0V100.1a2.5,2.5,0,0,1,5,0v26.6a2.5,2.5,0,1,1-5,0Zm18.5,0V100.1a2.5,2.5,0,0,1,2.5-2.4,2.5,2.5,0,0,1,2.5,2.4v26.6a2.5,2.5,0,0,1-2.5,2.5A2.5,2.5,0,0,1,673.6,126.7Zm18.6,0V100.1a2.5,2.5,0,0,1,4.9,0v26.6a2.5,2.5,0,1,1-4.9,0Zm18.5,0V100.1a2.5,2.5,0,0,1,4.9,0v26.6a2.5,2.5,0,1,1-4.9,0Zm92.5,0V100.1a2.5,2.5,0,0,1,5,0v26.6a2.5,2.5,0,0,1-5,0Zm5.5,40.9a4.1,4.1,0,0,1-4.1,4.1H658.8a4.1,4.1,0,1,1,0-8.2H804.6A4.1,4.1,0,0,1,808.7,167.6Z" style="fill:#36393a"/><path d="M662.2,210.2c6.8,0,10.7,4.1,10.7,11.2s-3.9,11.4-10.7,11.4H654V210.2ZM658,229.4h3.8c4.5,0,7-2.8,7-8s-2.5-7.8-7-7.8H658Z" style="fill:#404242"/><path d="M676.2,232.8V210.2h3.5L690.8,226h.2V210.2h3.9v22.6h-3.5l-11.2-15.9H680v15.9Z" style="fill:#404242"/><path d="M701.8,226.5c.3,2,2.3,3.3,5.1,3.3s4.6-1.4,4.6-3.2-1.1-2.7-4.1-3.3l-2.4-.5c-4.5-.9-6.6-3-6.6-6.3s3.5-6.7,8.4-6.7,8.3,2.8,8.4,6.8h-3.9c-.2-2.1-2-3.4-4.6-3.4s-4.2,1.2-4.2,3.1,1.1,2.5,3.9,3.1l2.4.5c4.8,1,6.8,2.9,6.8,6.2s-3.4,7-8.8,7-8.7-2.5-8.9-6.6Z" style="fill:#404242"/><path d="M730.9,215.9c4.1,0,6.6,2.1,6.7,5.3H734c-.1-1.5-1.3-2.5-3.1-2.5s-2.8.8-2.8,2,.7,1.7,2.4,2l2.8.7c3.4.7,4.7,2,4.7,4.5s-2.8,5.2-6.9,5.2-6.9-2.1-7.2-5.3h3.8c.3,1.6,1.4,2.4,3.4,2.4s3.1-.7,3.1-2-.6-1.5-2.4-1.9l-2.7-.6q-4.8-1-4.8-4.8C724.3,217.9,726.9,215.9,730.9,215.9Z" style="fill:#404242"/><path d="M755.1,227.8c-.5,3.1-3.4,5.3-7.3,5.3s-8-3.3-8-8.6,3-8.6,7.8-8.6,7.7,3.2,7.7,8.3v1.2H743.7v.3a4,4,0,0,0,4.2,4.4,3.6,3.6,0,0,0,3.6-2.3Zm-11.4-4.9h7.7a3.7,3.7,0,0,0-3.8-4C745.4,218.9,743.9,220.5,743.7,222.9Z" style="fill:#404242"/><path d="M757.8,216.2h3.7v2.9h.1a3.9,3.9,0,0,1,3.9-3.2l1.3.2v3.5l-1.6-.2c-2.2,0-3.5,1.4-3.5,3.7v9.7h-3.9Z" style="fill:#404242"/><path d="M777.5,232.8h-4.3l-5.8-16.6h4.1l3.9,13h0l3.9-13h4Z" style="fill:#404242"/><path d="M799.3,227.8c-.5,3.1-3.4,5.3-7.4,5.3s-7.9-3.3-7.9-8.6,3-8.6,7.8-8.6,7.6,3.2,7.6,8.3v1.2H787.8v.3a4.1,4.1,0,0,0,4.2,4.4,3.5,3.5,0,0,0,3.6-2.3Zm-11.4-4.9h7.7c-.1-2.4-1.6-4-3.8-4A3.9,3.9,0,0,0,787.9,222.9Z" style="fill:#404242"/><path d="M801.9,216.2h3.8v2.9h0a4,4,0,0,1,4-3.2l1.2.2v3.5l-1.6-.2c-2.2,0-3.5,1.4-3.5,3.7v9.7h-3.9Z" style="fill:#404242"/><path d="M123.4,214.1h-.1l-5.8,4v-3.7l5.9-4.2h4v22.6h-4Z" style="fill:#404242"/><path d="M138.9,215.9c4.1,0,6.6,2.1,6.7,5.3H142a2.8,2.8,0,0,0-3.1-2.5c-1.7,0-2.8.8-2.8,2s.7,1.7,2.4,2l2.8.7c3.4.7,4.7,2,4.7,4.5s-2.9,5.2-6.9,5.2-6.9-2.1-7.2-5.3h3.8c.3,1.6,1.4,2.4,3.4,2.4s3-.7,3-2-.6-1.5-2.3-1.9l-2.7-.6q-4.8-1-4.8-4.8C132.3,217.9,134.9,215.9,138.9,215.9Z" style="fill:#404242"/><path d="M153.5,212.3v3.9h3.1v3h-3.1v8.6c0,1.4.6,2,2,2h1.1v3h-2.1c-3.5,0-4.9-1.2-4.9-4.4v-9.2h-2.4v-3h2.4v-3.9Z" style="fill:#404242"/><path d="M170,224.4c0,3.1,1.9,5.2,5.3,5.2a4.8,4.8,0,0,0,5.2-5.2V210.2h4v14.6c0,4.9-3.5,8.3-9.2,8.3s-9.3-3.4-9.3-8.3V210.2h4Z" style="fill:#404242"/><path d="M194.5,215.9c4,0,6.6,2.1,6.7,5.3h-3.7a2.7,2.7,0,0,0-3-2.5c-1.7,0-2.9.8-2.9,2s.7,1.7,2.4,2l2.8.7c3.4.7,4.8,2,4.8,4.5s-2.9,5.2-7,5.2-6.9-2.1-7.2-5.3h3.9c.2,1.6,1.4,2.4,3.3,2.4s3.1-.7,3.1-2-.6-1.5-2.3-1.9l-2.8-.6q-4.8-1-4.8-4.8C187.8,217.9,190.5,215.9,194.5,215.9Z" style="fill:#404242"/><path d="M218.6,227.8c-.5,3.1-3.4,5.3-7.3,5.3s-8-3.3-8-8.6,3.1-8.6,7.9-8.6,7.6,3.2,7.6,8.3v1.2H207.2v.3a4,4,0,0,0,4.2,4.4,3.5,3.5,0,0,0,3.6-2.3Zm-11.3-4.9H215c-.1-2.4-1.6-4-3.8-4A3.9,3.9,0,0,0,207.3,222.9Z" style="fill:#404242"/><path d="M221.3,216.2H225v2.9h.1a4,4,0,0,1,4-3.2l1.2.2v3.5l-1.6-.2c-2.2,0-3.5,1.4-3.5,3.7v9.7h-3.9Z" style="fill:#404242"/><line x1="299" y1="87" x2="588.6" y2="87" style="fill:none;stroke:#404242;stroke-miterlimit:10;stroke-width:5px"/><polygon points="572 107.4 568.6 103.8 586.7 87 568.6 70.2 572 66.6 594 87 572 107.4" style="fill:#404242"/><line x1="594" y1="176.5" x2="304.4" y2="176.5" style="fill:none;stroke:#398557;stroke-miterlimit:10;stroke-width:5px"/><polygon points="321 156.1 324.4 159.7 306.3 176.5 324.4 193.3 321 196.9 299 176.5 321 156.1" style="fill:#398557"/><path d="M879.7,12.2l-1.5,8.5h-3.7l2.2-8.5Zm6.5,0L885,20.7h-3.9l2.1-8.5Z" style="fill:#36393a"/><path d="M898,34.8h-3.8l-6-22.6h4.2l3.9,17.1h.1L901,12.2h3.5L909,29.3h.2l3.9-17.1h4.2l-6.1,22.6h-3.8l-4.6-16.4h-.1Z" style="fill:#36393a"/><path d="M919.6,12.2h3.9V21h.1a5.3,5.3,0,0,1,5.2-3.1c3.7,0,5.8,2.4,5.8,6.2V34.8h-3.9V24.9c0-2.3-1.2-3.7-3.4-3.7a3.7,3.7,0,0,0-3.8,4v9.6h-3.9Z" style="fill:#36393a"/><path d="M937,30c0-2.9,2.3-4.7,6.3-4.9l4.4-.3V23.6c0-1.7-1.2-2.7-3.1-2.7s-3,.9-3.2,2.3h-3.6c.1-3.1,2.8-5.3,7-5.3s6.8,2.1,6.8,5.5V34.8h-3.8V32.1h-.1a5.7,5.7,0,0,1-5.1,2.9C939.4,35,937,33,937,30Zm10.7-1.4V27.4l-3.8.2c-1.9.1-3,1-3,2.3s1.2,2.2,2.9,2.2A3.6,3.6,0,0,0,947.7,28.6Z" style="fill:#36393a"/><path d="M959.7,14.3v3.9h3.1v3h-3.1v8.6c0,1.4.6,2,2,2h1.1v3h-2c-3.6,0-5-1.2-5-4.4V21.2h-2.4v-3h2.4V14.3Z" style="fill:#36393a"/><path d="M965.4,20.7l1.4-8.5h3.8l-2.2,8.5Z" style="fill:#36393a"/><path d="M978.2,17.9c4,0,6.6,2.1,6.7,5.3h-3.6a2.8,2.8,0,0,0-3.1-2.5c-1.7,0-2.8.8-2.8,2s.6,1.7,2.4,2l2.7.7c3.5.7,4.8,2,4.8,4.5s-2.9,5.2-6.9,5.2-6.9-2.1-7.2-5.3H975c.3,1.6,1.4,2.4,3.4,2.4s3-.7,3-2-.6-1.5-2.3-1.9l-2.8-.6c-3.1-.7-4.7-2.3-4.7-4.8S974.2,17.9,978.2,17.9Z" style="fill:#36393a"/><path d="M999.1,14.3v3.9h3.2v3h-3.2v8.6a1.8,1.8,0,0,0,2,2h1.1v3h-2c-3.5,0-5-1.2-5-4.4V21.2h-2.3v-3h2.3V14.3Z" style="fill:#36393a"/><path d="M1005,12.2h3.9V21h0a5.4,5.4,0,0,1,5.3-3.1c3.6,0,5.8,2.4,5.8,6.2V34.8h-3.9V24.9c0-2.3-1.2-3.7-3.4-3.7s-3.8,1.6-3.8,4v9.6H1005Z" style="fill:#36393a"/><path d="M1037.7,29.8c-.5,3.1-3.4,5.3-7.3,5.3s-8-3.3-8-8.6,3-8.6,7.8-8.6,7.6,3.2,7.6,8.3v1.2h-11.5v.3c0,2.6,1.6,4.4,4.1,4.4a3.5,3.5,0,0,0,3.6-2.3Zm-11.4-4.9h7.7a3.7,3.7,0,0,0-3.8-4C1028,20.9,1026.5,22.5,1026.3,24.9Z" style="fill:#36393a"/><path d="M1047.1,34.8V12.2h4.1V34.8Z" style="fill:#36393a"/><path d="M1063.9,12.2a7.2,7.2,0,0,1,7.6,7.6c0,4.5-3.2,7.5-7.8,7.5h-4.5v7.5h-4.1V12.2Zm-4.7,11.9h3.6c2.9,0,4.6-1.6,4.6-4.3s-1.7-4.3-4.6-4.3h-3.6Z" style="fill:#36393a"/><path d="M1081.5,21.2h-2.2v-3h2.2V16.8c0-3.2,1.6-4.8,5.2-4.8l2.1.2v2.7h-1.3c-1.5,0-2.1.7-2.1,2.1v1.3h3.3v3h-3.3V34.8h-3.9Z" style="fill:#36393a"/><path d="M1090,26.5c0-5.4,3.2-8.6,8-8.6s8,3.2,8,8.6-3.2,8.6-8,8.6S1090,31.9,1090,26.5Zm12,0c0-3.5-1.5-5.6-4-5.6s-4.1,2.1-4.1,5.6,1.6,5.5,4.1,5.5S1102,30,1102,26.5Z" style="fill:#36393a"/><path d="M1108.5,18.2h3.7v2.9h.1a4,4,0,0,1,4-3.2l1.2.2v3.5l-1.6-.2c-2.2,0-3.5,1.4-3.5,3.7v9.7h-3.9Z" style="fill:#36393a"/><path d="M900.5,68.2c-.5,3.1-3.4,5.3-7.3,5.3s-8-3.3-8-8.6,3-8.6,7.8-8.6,7.6,3.2,7.6,8.3v1.2H889.1v.3c0,2.6,1.6,4.4,4.1,4.4a3.5,3.5,0,0,0,3.6-2.3Zm-11.4-4.9h7.7a3.7,3.7,0,0,0-3.8-4A3.9,3.9,0,0,0,889.1,63.3Z" style="fill:#36393a"/><path d="M909.3,67.2l-3.5,6h-4.1l5.3-8.3-5.3-8.3h4.4l3.4,5.8h0l3.3-5.8h4.3l-5.3,8.2,5.2,8.4h-4.2l-3.5-6Z" style="fill:#36393a"/><path d="M918.2,68.4c0-2.9,2.2-4.7,6.3-4.9l4.3-.3V62c0-1.7-1.1-2.7-3.1-2.7s-3,.9-3.2,2.3h-3.6c.1-3.1,2.8-5.3,7-5.3s6.8,2.1,6.8,5.5V73.2h-3.8V70.5h-.1a5.7,5.7,0,0,1-5.1,2.9C920.5,73.4,918.2,71.4,918.2,68.4ZM928.8,67V65.8L925,66c-1.9.1-3,1-3,2.3s1.2,2.2,2.9,2.2A3.6,3.6,0,0,0,928.8,67Z" style="fill:#36393a"/><path d="M935.8,56.6h3.7v2.9h.1a4.9,4.9,0,0,1,4.7-3.2,4.6,4.6,0,0,1,4.7,3.3h0a5.4,5.4,0,0,1,5.2-3.3,5.1,5.1,0,0,1,5.4,5.5V73.2h-3.9V62.8c0-2.1-1-3.2-2.9-3.2a3.1,3.1,0,0,0-3.2,3.3V73.2h-3.8V62.6a2.7,2.7,0,0,0-2.9-3,3.2,3.2,0,0,0-3.2,3.4V73.2h-3.9Z" style="fill:#36393a"/><path d="M978.7,64.9c0,5.3-2.7,8.5-6.8,8.5a5.5,5.5,0,0,1-5.2-3h-.1v8.2h-3.9v-22h3.8v2.9h.1a5.5,5.5,0,0,1,5.2-3.2C976,56.3,978.7,59.6,978.7,64.9Zm-4,0c0-3.3-1.6-5.4-4.1-5.4s-4,2.2-4,5.4,1.6,5.3,4,5.3S974.7,68.2,974.7,64.9Z" style="fill:#36393a"/><path d="M981.3,50.6h3.9V73.2h-3.9Z" style="fill:#36393a"/><path d="M1003.1,68.2c-.5,3.1-3.4,5.3-7.3,5.3s-8-3.3-8-8.6,3-8.6,7.8-8.6,7.7,3.2,7.7,8.3v1.2H991.7v.3a4,4,0,0,0,4.2,4.4,3.6,3.6,0,0,0,3.6-2.3Zm-11.4-4.9h7.8a3.8,3.8,0,0,0-3.9-4C993.5,59.3,991.9,60.9,991.7,63.3Z" style="fill:#36393a"/><path d="M1006.2,71.1a2.3,2.3,0,1,1,4.5,0,2.2,2.2,0,0,1-2.2,2.2A2.2,2.2,0,0,1,1006.2,71.1Z" style="fill:#36393a"/><path d="M1024.5,62.5a3.4,3.4,0,0,0-3.6-3.1c-2.5,0-4,2.1-4,5.5s1.6,5.4,4,5.4a3.4,3.4,0,0,0,3.6-3h3.7c-.3,3.8-3.2,6.2-7.3,6.2s-8-3.2-8-8.6,3.1-8.6,7.9-8.6,7.1,2.7,7.4,6.2Z" style="fill:#36393a"/><path d="M1029.8,64.9c0-5.4,3.2-8.6,8-8.6s8.1,3.2,8.1,8.6-3.2,8.6-8.1,8.6S1029.8,70.3,1029.8,64.9Zm12.1,0c0-3.5-1.6-5.6-4.1-5.6s-4,2.1-4,5.6,1.6,5.5,4,5.5S1041.9,68.4,1041.9,64.9Z" style="fill:#36393a"/><path d="M1048.4,56.6h3.7v2.9h.1a4.8,4.8,0,0,1,4.7-3.2,4.5,4.5,0,0,1,4.6,3.3h.1a5.4,5.4,0,0,1,5.2-3.3,5.2,5.2,0,0,1,5.4,5.5V73.2h-3.9V62.8c0-2.1-1.1-3.2-3-3.2a3,3,0,0,0-3.1,3.3V73.2h-3.8V62.6a2.8,2.8,0,0,0-3-3,3.2,3.2,0,0,0-3.2,3.4V73.2h-3.8Z" style="fill:#36393a"/><path d="M1081.8,50.4c4.3,0,7.2,2.5,7.2,5.9a6.1,6.1,0,0,1-3.3,5.4c-2.1,1.1-2.7,2-2.7,3.5v.9h-3.6V65c-.1-2.3.8-3.7,2.9-5s2.6-2,2.6-3.5-1.3-2.9-3.3-2.9a3.2,3.2,0,0,0-3.4,3.2h-3.7C1074.7,53.1,1077.2,50.4,1081.8,50.4ZM1079,71.3a2.2,2.2,0,0,1,2.3-2.2,2.2,2.2,0,0,1,2.2,2.2,2.2,2.2,0,0,1-2.2,2.2A2.2,2.2,0,0,1,1079,71.3Z" style="fill:#36393a"/><path d="M1092.3,59.1l1.3-8.5h3.8l-2.2,8.5Zm6.6,0,1.3-8.5h3.9l-2.3,8.5Z" style="fill:#36393a"/><path d="M918.7,145.2l-1.4,8.5h-3.8l2.2-8.5Zm6.6,0-1.3,8.5h-3.8l2.1-8.5Z" style="fill:#36393a"/><path d="M934.7,149.1h-.1l-5.8,4v-3.7l5.8-4.2h4v22.6h-3.9Z" style="fill:#36393a"/><path d="M943.7,162.2h4c.5,1.8,2.1,2.7,4.1,2.7,3.6,0,5.3-3.3,5.3-8.5H957c-.9,2.2-3.2,3.6-6.1,3.6a7.2,7.2,0,0,1-7.5-7.4c0-4.6,3.6-7.9,8.5-7.9s9.1,3.2,9.1,11.5-3.5,12-9.2,12C947.6,168.2,944.3,165.8,943.7,162.2Zm12.7-9.6a4.5,4.5,0,0,0-9-.1,4.5,4.5,0,0,0,9,.1Z" style="fill:#36393a"/><path d="M971.6,144.8c4.6,0,7.7,2.8,7.7,6.4s-1.3,4.4-5.2,8.3l-5,4.9h10.5v3.3H963.8V165l7.9-7.8c3-2.9,3.6-4,3.6-5.7a3.5,3.5,0,0,0-3.7-3.5,4.1,4.1,0,0,0-4.3,3.9h-3.8C963.5,147.7,966.9,144.8,971.6,144.8Z" style="fill:#36393a"/><path d="M983,165.7a2.3,2.3,0,1,1,4.5,0,2.2,2.2,0,0,1-2.2,2.2A2.2,2.2,0,0,1,983,165.7Z" style="fill:#36393a"/><path d="M990.6,156.5c0-7.2,3.3-11.7,8.9-11.7s8.8,4.4,8.8,11.6-3.3,11.8-8.8,11.8S990.6,163.7,990.6,156.5Zm13.7,0c0-5.3-1.8-8.4-4.8-8.4s-4.8,3.1-4.8,8.3,1.7,8.5,4.8,8.5S1004.3,161.8,1004.3,156.5Z" style="fill:#36393a"/><path d="M1011,165.7a2.3,2.3,0,1,1,4.5,0,2.2,2.2,0,0,1-2.2,2.2A2.2,2.2,0,0,1,1011,165.7Z" style="fill:#36393a"/><path d="M1018.6,156.5c0-7.2,3.3-11.7,8.9-11.7s8.8,4.4,8.8,11.6-3.3,11.8-8.8,11.8S1018.6,163.7,1018.6,156.5Zm13.7,0c0-5.3-1.8-8.4-4.8-8.4s-4.8,3.1-4.8,8.3,1.7,8.5,4.8,8.5S1032.3,161.8,1032.3,156.5Z" style="fill:#36393a"/><path d="M1039,165.7a2.3,2.3,0,1,1,4.5,0,2.2,2.2,0,0,1-2.2,2.2A2.2,2.2,0,0,1,1039,165.7Z" style="fill:#36393a"/><path d="M1051.2,149.1h-.1l-5.8,4v-3.7l5.9-4.2h3.9v22.6h-3.9Z" style="fill:#36393a"/><path d="M1060.1,156.7c0-7.5,3.4-12,9.2-12,4.2,0,7.4,2.5,8,6.1h-4a3.8,3.8,0,0,0-4-2.8c-3.5,0-5.3,3.3-5.3,8.6h0a6.5,6.5,0,0,1,6.2-3.7,7.1,7.1,0,0,1,7.4,7.4c0,4.6-3.5,7.9-8.4,7.9S1060.1,164.7,1060.1,156.7Zm13.6,3.8a4.3,4.3,0,0,0-4.5-4.4,4.3,4.3,0,0,0-4.6,4.3,4.5,4.5,0,0,0,4.5,4.5A4.4,4.4,0,0,0,1073.7,160.5Z" style="fill:#36393a"/><path d="M1080.7,153.7l1.3-8.5h3.8l-2.1,8.5Zm6.6,0,1.4-8.5h3.8l-2.2,8.5Z" style="fill:#36393a"/><line x1="870" y1="87" x2="1159.6" y2="87" style="fill:none;stroke:#404242;stroke-miterlimit:10;stroke-width:5px"/><polygon points="1143 107.4 1139.6 103.8 1157.7 87 1139.6 70.2 1143 66.6 1165 87 1143 107.4" style="fill:#404242"/><line x1="1165" y1="176.5" x2="875.4" y2="176.5" style="fill:none;stroke:#404242;stroke-miterlimit:10;stroke-width:5px"/><polygon points="892 156.1 895.4 159.7 877.3 176.5 895.4 193.3 892 196.9 870 176.5 892 156.1" style="fill:#404242"/><line x1="173.4" y1="257.5" x2="173.5" y2="472.1" style="fill:none;stroke:#398557;stroke-miterlimit:10;stroke-width:5px"/><polygon points="153 455.5 156.7 452.1 173.5 470.2 190.3 452.1 193.9 455.5 173.5 477.5 153 455.5" style="fill:#398557"/></svg>