<svg width="40" height="40" viewBox="0 0 40 40" fill="none" xmlns="http://www.w3.org/2000/svg">
<path fill-rule="evenodd" clip-rule="evenodd" d="M19.9322 40V32.2712C28.113 32.2712 34.4633 24.1582 31.322 15.548C30.1695 12.3616 27.6158 9.80792 24.4294 8.65536C15.8192 5.5368 7.70616 11.8644 7.70616 20.0452H0C0 7.00568 12.6102 -3.16384 26.2825 1.10736C32.2486 2.98304 37.0169 7.7288 38.8701 13.6949C43.1413 27.3898 32.9943 40 19.9322 40Z" fill="#0080FF"/>
<path fill-rule="evenodd" clip-rule="evenodd" d="M12.2712 32.2938H19.9548V24.6102H12.2712V32.2938ZM6.35032 38.2147H12.2711V32.2938H6.3504L6.35032 38.2147ZM1.40112 32.2938H6.3504V27.3446H1.40112V32.2938Z" fill="#0080FF"/>
</svg>
